# xmcd
#
# Track frame offsets: 
#        150
#        24047
#        43135
#        66472
#        82720
#        106887
#        133461
#        155889
#        174020
#        196864
#        215160
#        233628
#        261701
#
# Disc length: 3653 seconds
#
# Revision: 0
# Processed by: cddbd v1.5.2PL0 Copyright (c) Steve Scherf et al.
# Submitted via: ExactAudioCopy v0.99pb4
#
DISCID=b60e430d
DTITLE=Matt Woods and the Thunderbolts - Be My Friend
DYEAR=2007
DGENRE=Blues
TTITLE0=Death Letter
TTITLE1=Goin' to Brownsville
TTITLE2=Fairfield
TTITLE3=If You Like Fat Women
TTITLE4=The Law
TTITLE5=Jumper On The Line
TTITLE6=Stop That Grinnin'
TTITLE7=She Used To Be Your Woman
TTITLE8=County Road Blues
TTITLE9=If You Dont Love Me
TTITLE10=Two Sides To Every Story
TTITLE11=Shake 'Em On Down
TTITLE12=When The Good Times Are Gone
EXTD=
EXTT0=
EXTT1=
EXTT2=
EXTT3=
EXTT4=
EXTT5=
EXTT6=
EXTT7=
EXTT8=
EXTT9=
EXTT10=
EXTT11=
EXTT12=
PLAYORDER=
